<svg fill="#FB8A00" height="24" width="24" version="1.1" id="Capa_1" xmlns="http://www.w3.org/2000/svg" xmlns:xlink="http://www.w3.org/1999/xlink" 
	 viewBox="0 0 390.004 390.004" xml:space="preserve">
<path d="M380.812,195.002l8.419-25.258c2.619-7.859-1.628-16.354-9.487-18.974c-7.858-2.619-16.354,1.628-18.974,9.487
	l-6.581,19.744h-24.878c-7.603-83.978-78.386-150-164.311-150c-90.981,0-165,74.019-165,165s74.019,165,165,165
	c85.925,0,156.707-66.022,164.311-150h24.878l6.581,19.744c2.096,6.286,7.947,10.26,14.228,10.26c1.572,0,3.172-0.249,4.746-0.773
	c7.858-2.62,12.105-11.115,9.486-18.974L380.812,195.002z M165,330.002c-74.439,0-135-60.56-135-135s60.561-135,135-135
	c69.369,0,126.676,52.595,134.162,120h-30.238c-7.301-50.816-51.119-90-103.924-90c-57.896,0-105,47.103-105,105s47.104,105,105,105
	c52.805,0,96.623-39.184,103.924-90h30.238C291.676,277.407,234.369,330.002,165,330.002z M207.42,180.002
	c-6.192-17.458-22.865-30-42.42-30c-24.813,0-45,20.187-45,45s20.188,45,45,45c19.555,0,36.228-12.542,42.42-30h31.07
	c-6.968,34.192-37.271,60-73.49,60c-41.355,0-75-33.645-75-75s33.645-75,75-75c36.219,0,66.522,25.808,73.49,60H207.42z"/>
</svg>