<?xml version="1.0" encoding="iso-8859-1"?>
<!-- Uploaded to: SVG Repo, www.svgrepo.com, Generator: SVG Repo Mixer Tools -->
<svg fill="#000000" height="32px" width="32px" version="1.1" id="Layer_1" xmlns="http://www.w3.org/2000/svg" xmlns:xlink="http://www.w3.org/1999/xlink" 
	 viewBox="0 0 512 512" xml:space="preserve">
<g>
	<g>
		<path d="M411.996,155.995c0-41.877-16.366-81.19-46.083-110.696C336.468,16.061,297.479,0,256.012,0
			c-0.378,0-0.758,0.002-1.136,0.004C214.41,0.29,176.091,16.138,146.978,44.63c-29.123,28.499-45.781,66.467-46.91,106.911
			c-0.989,35.446,9.627,69.154,30.704,97.478c25.095,33.726,38.916,72.709,40.184,113.103h-3.38
			c-5.632,0-10.199,4.567-10.199,10.199v52.634c0,32.324,26.298,58.623,58.623,58.623h3.565C223.659,499.886,238.44,512,256.001,512
			c17.561,0,32.342-12.114,36.438-28.422h3.565c32.324,0,58.623-26.298,58.623-58.623v-52.634c0-5.632-4.567-10.199-10.199-10.199
			h-3.38c1.266-40.723,14.989-80.108,38.984-111.512C400.942,223.24,411.996,190.523,411.996,155.995z M256.001,491.602
			c-6.107,0-11.482-3.207-14.526-8.024h29.051C267.483,488.395,262.108,491.602,256.001,491.602z M334.227,424.954
			c0,21.077-17.148,38.225-38.225,38.225h-80.004v0.001c-10.525,0-20.069-4.277-26.988-11.182h97.519
			c5.632,0,10.199-4.567,10.199-10.199c0-5.632-4.567-10.199-10.199-10.199H178.365c-0.38-2.159-0.59-4.376-0.59-6.644v-7.696
			h80.332c5.632,0,10.199-4.567,10.199-10.199s-4.567-10.199-10.199-10.199h-80.332v-14.341h156.452V424.954z M320.629,362.122
			H191.374c-1.269-44.808-16.498-88.002-44.237-125.28c-18.314-24.612-27.539-53.911-26.678-84.731
			c2.013-72.115,62.376-131.2,134.561-131.708c0.331-0.003,0.658-0.004,0.988-0.004c36.045,0,69.94,13.962,95.534,39.374
			c25.831,25.649,40.056,59.821,40.056,96.222c0,30.013-9.605,58.449-27.775,82.23C337.129,273.16,321.905,316.942,320.629,362.122z
			"/>
	</g>
</g>
<g>
	<g>
		<path d="M306.53,396.86h-6.316c-5.632,0-10.199,4.567-10.199,10.199s4.567,10.199,10.199,10.199h6.316
			c5.632,0,10.199-4.567,10.199-10.199S312.162,396.86,306.53,396.86z"/>
	</g>
</g>
<g>
	<g>
		<path d="M265.13,173.796V115.3c18.73,1.026,25.913,9.493,31.301,9.493c5.9,0,9.236-7.697,9.236-11.802
			c0-10.262-22.322-16.164-40.538-16.934v-7.184c0-2.822-3.336-5.387-6.67-5.387c-3.848,0-6.671,2.566-6.671,5.387v7.697
			c-23.091,2.053-47.465,13.342-47.465,45.669c0,32.84,24.63,41.308,47.465,49.261v68.247c-29.248-1.283-35.407-20.526-42.59-20.526
			c-4.875,0-9.493,6.671-9.493,11.803c0,10.775,20.012,28.479,52.082,28.992v8.466c0,2.823,2.823,5.388,6.671,5.388
			c3.335,0,6.67-2.566,6.67-5.388v-9.236c26.683-3.591,45.156-20.269,45.156-51.57C310.286,192.526,286.939,181.75,265.13,173.796z
			 M252.816,169.435c-15.138-5.644-27.966-11.546-27.966-29.249c0-16.421,12.572-23.091,27.966-24.63V169.435z M264.104,259.234
			v-62.86c14.111,5.901,25.656,13.855,25.656,33.353C289.76,246.663,280.268,256.668,264.104,259.234z"/>
	</g>
</g>
</svg>