<svg width="40" height="40" viewBox="0 0 40 40" fill="none" xmlns="http://www.w3.org/2000/svg">
<rect width="40" height="40" rx="12" fill="#1ED760"/>
<g clip-path="url(#clip0_32_2765)">
<path d="M19.4994 9.03796C13.1677 9.03796 8.03461 14.1709 8.03461 20.5026C8.03461 26.8346 13.1677 31.9672 19.4994 31.9672C25.8318 31.9672 30.9644 26.8346 30.9644 20.5026C30.9644 14.1713 25.8318 9.03851 19.4993 9.03851L19.4994 9.03796ZM24.7571 25.5733C24.5518 25.9101 24.1109 26.0169 23.7741 25.8102C21.0823 24.1659 17.6937 23.7936 13.7029 24.7053C13.3183 24.793 12.935 24.552 12.8474 24.1673C12.7593 23.7826 12.9993 23.3993 13.3848 23.3117C17.7521 22.3135 21.4982 22.7435 24.5203 24.5903C24.8571 24.7971 24.9638 25.2365 24.7571 25.5733ZM26.1604 22.4512C25.9016 22.8722 25.3513 23.005 24.931 22.7462C21.8493 20.8516 17.1516 20.303 13.5066 21.4095C13.0338 21.5523 12.5345 21.2859 12.3911 20.814C12.2487 20.3412 12.5152 19.8429 12.9871 19.6991C17.1508 18.4358 22.3271 19.0478 25.866 21.2225C26.2863 21.4812 26.4191 22.0316 26.1604 22.4513V22.4512ZM26.2809 19.2005C22.5858 17.0058 16.4894 16.804 12.9615 17.8748C12.395 18.0466 11.7959 17.7268 11.6243 17.1602C11.4526 16.5935 11.7721 15.9948 12.339 15.8226C16.3888 14.5931 23.1211 14.8307 27.3753 17.3562C27.8859 17.6586 28.053 18.3167 27.7504 18.8256C27.4492 19.3351 26.7893 19.5031 26.2814 19.2005H26.2809Z" fill="white"/>
</g>
<defs>
<clipPath id="clip0_32_2765">
<rect width="23" height="23" fill="white" transform="translate(8 9)"/>
</clipPath>
</defs>
</svg>
