<svg xmlns="http://www.w3.org/2000/svg" width="60" height="97" viewBox="0 0 60 97" fill="none">
  <path fill-rule="evenodd" clip-rule="evenodd" d="M43.6593 -5L24.7273 42.9091H39.4671L59.5 -5H43.6593Z" fill="#4E6AFF"/>
  <mask id="mask0_18_20291" style="mask-type:luminance" maskUnits="userSpaceOnUse" x="5" y="39" width="52" height="58">
    <path fill-rule="evenodd" clip-rule="evenodd" d="M5.65027 39.9377H56.1538V96.9606H5.65027V39.9377Z" fill="white"/>
  </mask>
  <g mask="url(#mask0_18_20291)">
    <path fill-rule="evenodd" clip-rule="evenodd" d="M21.0885 48.2916V44.1208C21.0885 43.4427 21.6389 42.8904 22.3153 42.8904H39.4887C40.1651 42.8904 40.7156 43.4427 40.7156 44.1208V48.2916C37.6988 47.0141 34.3825 46.3078 30.902 46.3078C27.4215 46.3078 24.1053 47.0141 21.0885 48.2916ZM43.6599 49.7732V44.1208C43.6599 41.8142 41.7886 39.9377 39.4887 39.9377H22.3153C20.0154 39.9377 18.1445 41.8142 18.1445 44.1208V49.7732C10.6694 54.1706 5.65027 62.3146 5.65027 71.6342C5.65027 85.6217 16.9556 96.9607 30.902 96.9607C44.8481 96.9607 56.1538 85.6217 56.1538 71.6342C56.1538 62.3146 51.1349 54.1706 43.6599 49.7732Z" fill="url(#paint0_linear_18_20291)"/>
  </g>
  <path fill-rule="evenodd" clip-rule="evenodd" d="M30.9087 92.3636C19.4043 92.3636 10.0454 83.1779 10.0454 71.8866C10.0454 60.5948 19.4043 51.4091 30.9087 51.4091C42.4132 51.4091 51.7727 60.5948 51.7727 71.8866C51.7727 83.1779 42.4132 92.3636 30.9087 92.3636Z" fill="url(#paint1_linear_18_20291)"/>
  <path fill-rule="evenodd" clip-rule="evenodd" d="M37.5102 77.4921C37.591 78.6414 36.4312 79.4718 35.3692 79.0251L31.2515 77.2928L27.1178 78.9871C26.0519 79.424 24.8999 78.5831 24.9911 77.4347L25.3501 72.9163L22.4518 69.4326C21.7197 68.5527 22.1649 67.2101 23.2776 66.9418L27.6438 65.8893L30.001 62.0652C30.6079 61.0806 32.0416 61.0872 32.6395 62.0772L34.9622 65.9233L39.3188 67.0159C40.429 67.2944 40.8619 68.641 40.1218 69.5142L37.1921 72.9709L37.5102 77.4921Z" fill="#FFEFB9"/>
  <path fill-rule="evenodd" clip-rule="evenodd" d="M0 -5H17.5945L40.1818 43.6818H23.6585L0 -5Z" fill="#4E6AFF"/>
  <defs>
    <linearGradient id="paint0_linear_18_20291" x1="25.5394" y1="32.5714" x2="-4.8104" y2="76.5705" gradientUnits="userSpaceOnUse">
      <stop stop-color="#FFDE78"/>
      <stop offset="1" stop-color="#FFBA3B"/>
    </linearGradient>
    <linearGradient id="paint1_linear_18_20291" x1="28.8937" y1="43.847" x2="4.51111" y2="76.4557" gradientUnits="userSpaceOnUse">
      <stop stop-color="#FFD06D"/>
      <stop offset="1" stop-color="#F99912"/>
    </linearGradient>
  </defs>
</svg>