<svg xmlns="http://www.w3.org/2000/svg" width="32" height="32" viewBox="0 0 24 24" fill="none">
<path d="M6.002 4V5H5.482C5.217 5 5.002 5.215 5.002 5.48C5.001 5.492 5 5.506 5 5.52C5 5.785 5.215 6 5.48 6C5.481 6 5.481 6 5.482 6H6.002V7H5.482C5.217 7 5.002 7.215 5.002 7.48C5.001 7.492 5 7.506 5 7.52C5 7.785 5.215 8 5.48 8C5.481 8 5.481 8 5.482 8H6.002V9H5.482C5.217 9 5.002 9.215 5.002 9.48C5.001 9.492 5 9.506 5 9.52C5 9.785 5.215 10 5.48 10C5.481 10 5.481 10 5.482 10H6.002V11H5.482C5.217 11 5.002 11.215 5.002 11.48C5.001 11.492 5 11.506 5 11.52C5 11.785 5.215 12 5.48 12C5.481 12 5.481 12 5.482 12H6.002V13H5.482C5.217 13 5.002 13.215 5.002 13.48C5.002 13.745 5.217 13.96 5.482 13.96H6.002V14.96H5.482C5.217 14.96 5.002 15.175 5.002 15.44C5.002 15.705 5.217 15.92 5.482 15.92H6.002V16.92H5.482C5.217 16.92 5.002 17.135 5.002 17.4C5.002 17.665 5.217 17.88 5.482 17.88H6.002V19.88H18.002V4H6.002V4ZM7.502 18C7.226 18 7.002 17.776 7.002 17.5C7.002 17.224 7.226 17 7.502 17C7.778 17 8.002 17.224 8.002 17.5C8.002 17.776 7.778 18 7.502 18ZM7.502 16C7.226 16 7.002 15.776 7.002 15.5C7.002 15.224 7.226 15 7.502 15C7.778 15 8.002 15.224 8.002 15.5C8.002 15.776 7.778 16 7.502 16ZM7.502 14C7.226 14 7.002 13.776 7.002 13.5C7.002 13.224 7.226 13 7.502 13C7.778 13 8.002 13.224 8.002 13.5C8.002 13.776 7.778 14 7.502 14ZM7.502 12C7.226 12 7.002 11.776 7.002 11.5C7.002 11.224 7.226 11 7.502 11C7.778 11 8.002 11.224 8.002 11.5C8.002 11.776 7.778 12 7.502 12ZM7.502 10C7.226 10 7.002 9.776 7.002 9.5C7.002 9.224 7.226 9 7.502 9C7.778 9 8.002 9.224 8.002 9.5C8.002 9.776 7.778 10 7.502 10ZM7.502 8C7.226 8 7.002 7.776 7.002 7.5C7.002 7.224 7.226 7 7.502 7C7.778 7 8.002 7.224 8.002 7.5C8.002 7.776 7.778 8 7.502 8ZM7.502 6C7.226 6 7.002 5.776 7.002 5.5C7.002 5.224 7.226 5 7.502 5C7.778 5 8.002 5.224 8.002 5.5C8.002 5.776 7.778 6 7.502 6ZM16.002 10H10.002V7H16.002V10Z" fill="white" fill-opacity="0.6"/>
</svg>