<svg xmlns="http://www.w3.org/2000/svg" width="32" height="32" viewBox="0 0 24 24" fill="none">
<path d="M12 4C7.6 4 4 7.6 4 12C4 16.4 7.6 20 12 20C16.4 20 20 16.4 20 12C20 7.6 16.4 4 12 4ZM17.2 9.3C17.6 9.3 17.9 9.6 18.3 9.6C18 10 16.7 10 16.3 9.5C16.6 9.4 16.8 9.3 17.2 9.3ZM5 12C5 11.6 5 11.2 5.1 10.7C5.2 10.7 5.3 10.8 5.4 10.8C5.4 10.8 5.5 10.9 5.5 11C5.5 11.3 5.8 11.5 6 11.5C6.8 11.6 7.1 12.3 7.8 12.5C8 12.6 7.9 12.8 7.8 13C7.2 13.8 7.7 14.4 8.2 14.9C8.7 15.3 8.7 15.7 8.8 16.3C8.8 17 8.9 17.8 9.2 18.5C6.7 17.3 5 14.9 5 12ZM12 19C11.3 19 10.5 18.9 9.9 18.7C9.8 18.5 9.8 18.3 9.9 18.1C10.3 17.3 10.7 16.6 11.2 15.9C11.4 15.7 11.6 15.5 11.6 15.2C11.6 15 11.7 14.7 11.8 14.5C12.1 14 12 13.7 11.6 13.6C10.8 13.4 10.4 12.7 9.8 12.4C9.2 12.1 8.6 11.9 8.1 12.2C7.9 12.3 7.6 12.4 7.6 12.1C7.6 11.7 7.1 11.4 7.2 11C7.1 11 7 11 6.9 11.1C6.8 11.2 6.7 11.3 6.5 11.2C6.3 11 6.4 10.8 6.4 10.6C6.5 10.4 6.6 10.3 6.8 10.2C7.2 10.1 7.6 10.1 7.8 10.6C8.1 9.7 8.7 9.2 9.3 8.8C9.3 8.8 10.1 8.1 10.2 8.1C10.3 8.1 10.4 8.3 10.6 8.4C10.8 8.4 10.9 8.4 10.9 8.2C11 7.7 10.7 7.1 10.3 7C10.3 6.9 10.4 6.9 10.4 6.9C10.7 6.8 11.1 6.6 11 6.3C11 5.9 10.6 5.7 10.2 5.7C10 5.7 9.8 5.7 9.6 5.8C9.2 6 8.7 6.2 8.1 6.2C9.2 5.4 10.6 5 12 5C12.3 5 12.5 5 12.8 5C12.2 5.1 11.6 5.3 11.2 5.5C11.8 5.6 11.9 5.9 11.7 6.4C11.6 6.6 11.7 6.8 11.9 6.9C12.1 7 12.3 7 12.4 6.8C12.6 6.5 13 6.4 13.3 6.3C13.7 6.2 14 6 14.3 5.6C14.3 5.5 14.4 5.5 14.5 5.4C15.1 5.6 15.7 6 16.3 6.4C16.2 6.4 16.2 6.5 16.1 6.5C15.9 6.7 15.6 6.8 15.9 7.2C16 7.4 15.9 7.5 15.8 7.6C15.6 7.7 15.5 7.6 15.4 7.5C15.3 7.4 15.3 7.2 15 7.2C14.9 7.4 14.6 7.5 14.6 7.8C15.1 7.8 15 8.2 15.1 8.5C14.5 8.6 14.3 8.9 14.6 9.4C14.7 9.6 14.5 9.7 14.4 9.8C14 10.4 13.6 10.8 13.6 11.5C13.6 12.2 14.1 12.9 14.9 12.8C15.8 12.7 15.8 12.7 16.1 13.5C16.1 13.6 16.2 13.7 16.2 13.8C16.3 14 16.4 14.2 16.3 14.4C16 15.2 16.4 15.8 16.7 16.4C16.8 16.6 16.9 16.7 17 16.8C15.7 18.2 14 19 12 19Z" fill="white" fill-opacity="0.6"/>
</svg>